<svg id="Layer_2" data-name="Layer 2" xmlns="http://www.w3.org/2000/svg" viewBox="0 0 396 271"><defs><style>.cls-1{fill:#57595a;}</style></defs><title>logo-ti-plus</title><path class="cls-1" d="M27,14.5v271H423V14.5ZM209.44,63.75l41.89-24.44V85.78H209.44ZM162.76,267.11a56.32,56.32,0,0,1-22-4.09q-9.78-4.08-14.35-10.58t-6.34-17.55q-1.44-7.86-1.44-31.74V128.92H98V93h20.68V59.18l45.21-26.29V93h88.06v35.91H163.88v68.61q0,20.85.88,24.29a9.9,9.9,0,0,0,4,5.69,12.7,12.7,0,0,0,7.62,2.25q6.24,0,18.11-4.33l1.85,34.95A79.89,79.89,0,0,1,162.76,267.11Zm88.76-.24H209.44V136.51h42.08Zm162.73-97.45h-57.4v56.81H318.68V169.42H261.43V130.21h57.25V83.41l38.17-20v66.8h57.4Z" transform="translate(-27 -14.5)"/></svg>